<?xml version="1.0" encoding="utf-8"?>
<!-- Generator: Adobe Illustrator 26.0.0, SVG Export Plug-In . SVG Version: 6.00 Build 0)  -->
<svg version="1.1" id="Layer_1" xmlns="http://www.w3.org/2000/svg" xmlns:xlink="http://www.w3.org/1999/xlink" x="0px" y="0px"
	 viewBox="0 0 791.5 191" style="enable-background:new 0 0 791.5 191;" xml:space="preserve">
<style type="text/css">
	.st0{fill:#FFFFFF;stroke:#FFFFFF;stroke-width:3;stroke-linecap:round;stroke-linejoin:round;}
	.st1{fill:#E61B14;stroke:#FFFFFF;stroke-width:3;stroke-linecap:round;stroke-linejoin:round;}
</style>
<g id="Layer_2_00000150060657953089255350000000457635052166725014_">
	<path class="st0" d="M206.1,19.9c0,0,1.9,1.4,0-18.4H224v4l101.1-1.4l17.5,1.4L355,4.4l29.4,1.1L476,7.6l49.1,1.9l47.7,1h164.9
		l18.1-0.4L790,8.4l-2.9,2.6c0,0-5.6,18-5.9,22.1l3,6.3l-9.1-1.3L764,46.6l-8.9,17.1l-2.7,1.9l-15-5.1l-11.8,6.4l-6.1,3.3l-5.5,7.1
		l-2.6,3.3l-8.6,0.4l-0.5-8.6l-3-1.7l-7.9,5.4l-5.2,4.1l-0.6,2.9l-1,3.6l-5.8-1.4l-2.8-0.7l-0.2,7.8l-3,5.8l-2.2,3.3h-11.8
		l-15.5,8.7l-0.4,2.3l-19.3,12.9l-2,1.1l-25.2,1c0,0-21.9,13.7-22.3,16.1l-1.6,13.8l-5.3,5.1h-8.3l-3.3-2.4l-5.5,6.1l-1.2,2l-2,21.3
		H397.9H1.5l1.8-4.8l8.1,0.3l4.2-10.6l8-0.3l-5.2-7.1l3.8-4l-7.6-5.3l7.9-11.1l-4.3-3.4l-1.2,3.1l-3.5-0.9l2.1-4.8l6.1-5.6l3.8,8.1
		l1-16.3l3.7,0.3l6.3,4l0.8-3.4l-4.6-4.8l10.1-7.3l-7.5,0.4l-1.6-10.1l11.3-1l4.9-7.1l6.7-0.2l-5.5-4.1l-0.2-5.2l11.1-1L54,77.7
		l4.2-3.8l0.6-7.3l7.7-4.9L55.8,49.4l15-0.6l1-2.8l-7.9-5.5l5.6-1.8l3.8-4L70,29.6l2.2-3.6l-0.8-5.5h5.1l0.6,5l5.7-4L206.1,19.9z"/>
</g>
<g id="Layer_3">
	<path class="st1" d="M244.3,5.2l4,33.3l7.2,1.1l-5.1,16.8l2.2,21.6l31,4.5l-1.5,26.8l-10.8,7.7v8.8l6.9,8.5l-1.8,3.8v2.2l8.9,1.1
		l7.3-1.1l16.6,5l0.9,9.4h6.5l2.3,6.3h6.7l12.8-7.8l1.1-4.1l5.9,1.5l10,4.1l14.2-11.6v8.4H391l9.9,6.3l4-8.9v-16.8l25.3-0.9
		l15.2-4.9l15.7-21.2h31l11.7-7.3l10.1-9.4c0,0-9.4-22.4-20.4-27.9L474.4,61l-27.6-9.4l-5.8-8.6l-7.6,8.5l-20-0.9l-5.6-5l1.7-15.6
		L379,28.2l-6.3-5.7l1.8-17.4l-19.5-0.7l-12.4,1.1l-17.5-1.4l-32.8,0.5L244.3,5.2z"/>
</g>
</svg>
