<?xml version="1.0" encoding="utf-8"?>
<!-- Generator: Adobe Illustrator 26.0.0, SVG Export Plug-In . SVG Version: 6.00 Build 0)  -->
<svg version="1.1" id="Layer_1" xmlns="http://www.w3.org/2000/svg" xmlns:xlink="http://www.w3.org/1999/xlink" x="0px" y="0px"
	 viewBox="0 0 844 258.5" style="enable-background:new 0 0 844 258.5;" xml:space="preserve">
<style type="text/css">
	.st0{fill:#FFFFFF;}
	.st1{fill:#E61B14;}
</style>
<g id="Layer_2_00000111870404810215636670000005674596496624196497_">
	<g>
		<path class="st0" d="M27.8,228.3c-1.6,0-3.2-0.8-4.1-2.1s-1.2-3-0.6-4.6l1.8-4.8c0.7-2,2.6-3.3,4.7-3.3c0.1,0,0.1,0,0.2,0l4.5,0.2
			l2.9-7.4c0.6-1.4,1.8-2.5,3.2-2.9c-1.2-1.8-1-4.2,0.4-5.9l-2.9-2c-1.1-0.8-1.8-1.9-2.1-3.2c-0.2-1.3,0.1-2.7,0.8-3.7l3-4.2
			l-1.3-0.3c-1.4-0.4-2.6-1.3-3.3-2.7c-0.6-1.3-0.7-2.9-0.1-4.2l2.1-4.8c0.3-0.6,0.7-1.2,1.2-1.6l6.1-5.6c0.8-0.8,1.9-1.2,3-1.3
			l0.2-3.5c0.1-1.3,0.7-2.6,1.7-3.5c0.9-0.8,2.1-1.2,3.3-1.2c0.1,0,0.3,0,0.4,0l0.8,0.1c0.2-1.2,0.9-2.4,2-3.1l1-0.7
			c-0.2-0.4-0.3-0.8-0.4-1.3l-1.6-10.1c-0.2-1.4,0.1-2.8,1-3.9c0.9-1.1,2.1-1.8,3.5-1.9l9-0.8l3.5-5.1c0.1-0.2,0.3-0.4,0.4-0.5
			c0-0.2-0.1-0.5-0.1-0.7l-0.2-5.2c-0.1-2.7,1.9-4.9,4.5-5.2l1.6-0.1l-1.8-2.2c-1.7-2.1-1.5-5.1,0.5-6.9l2.8-2.5l0.4-5.3
			c0.1-1.6,1-3,2.3-3.8l2.8-1.7l-6.9-7.9c-1.3-1.5-1.6-3.5-0.8-5.3c0.8-1.8,2.5-2.9,4.4-3l5-0.2c-1.2-1.1-1.8-2.8-1.6-4.4
			c0.3-1.9,1.6-3.4,3.4-4l4.4-1.4l0.2-0.2l-1.2-1.7c-1.1-1.6-1.2-3.7-0.1-5.4l1.3-2.1L92.7,55c-0.2-1.4,0.2-2.9,1.2-4
			c0.9-1.1,2.3-1.7,3.8-1.7h5.1c1.5,0,2.8,0.6,3.7,1.7c0.7-0.4,1.6-0.7,2.5-0.7l119.3-1.6c0-2.3-0.2-6.3-0.8-13
			c-0.1-1.4,0.3-2.8,1.3-3.8c0.9-1,2.3-1.6,3.7-1.6h17.8c2.4,0,4.4,1.7,4.9,3.9c0,0,96.2-1.3,96.2-1.3c0.1,0,0.3,0,0.4,0l17.1,1.4
			l12-1.1c0.1,0,0.3,0,0.4,0c0.1,0,0.1,0,0.2,0l29.4,1.1l91.5,2.1l49.2,1.9l47.6,1H764l18-0.4l34.1-1.7c0.1,0,0.2,0,0.2,0
			c2,0,3.8,1.2,4.6,3.1c0.8,2,0.3,4.2-1.3,5.6l-1.9,1.7c-2.2,7.1-4.4,15.2-5.1,18.5L815,71c0.8,1.7,0.6,3.6-0.5,5.1
			c-0.9,1.3-2.5,2-4,2c-0.2,0-0.5,0-0.7,0l-7-1l-8.7,6.6l-8.4,16.1c-0.4,0.7-0.9,1.3-1.6,1.8l-2.7,1.9c-0.9,0.6-1.9,0.9-2.9,0.9
			c-0.5,0-1.1-0.1-1.6-0.3l-13-4.4l-9.9,5.4l-5.1,2.8l-4.8,6.2l-2.7,3.4c-0.9,1.1-2.2,1.8-3.7,1.9l-8.6,0.4c-0.1,0-0.2,0-0.2,0
			c-2.6,0-4.8-2.1-5-4.7l-0.2-3.4l-3.2,2.2l-3.7,2.9l-0.2,1.1c0,0.1,0,0.2-0.1,0.3l-1,3.6c-0.6,2.2-2.6,3.7-4.8,3.7
			c-0.4,0-0.8,0-1.2-0.1l-2.6-0.6l0,1.6c0,0.8-0.2,1.5-0.6,2.2l-3,5.8c-0.1,0.2-0.2,0.3-0.3,0.5l-2.2,3.3c-0.9,1.4-2.5,2.2-4.2,2.2
			h-10.5l-12.3,6.9c-0.2,1.3-1,2.5-2.2,3.3l-19.3,12.9c-0.1,0.1-0.2,0.1-0.3,0.2l-2,1.1c-0.7,0.4-1.5,0.6-2.2,0.6l-23.9,0.9
			c-7.7,4.9-16.4,10.8-19,13.1l-1.5,12.4c-0.1,1.1-0.7,2.2-1.5,3l-5.3,5.1c-0.9,0.9-2.2,1.4-3.5,1.4H585c-0.9,0-1.8-0.3-2.6-0.7
			l-2.2,2.5l-0.4,0.6l-1.9,20.2c-0.2,2.6-2.4,4.5-5,4.5H27.8z"/>
		<path class="st1" d="M250.2,35.2v4l101.1-1.4l17.5,1.4l12.4-1.1l29.4,1.1l91.5,2.1l49.1,1.9l47.7,1H764l18.1-0.4l34.1-1.7
			l-2.9,2.6c0,0-5.6,18-5.9,22.1l3,6.3l-9.1-1.3l-11.2,8.5l-8.9,17.1l-2.7,1.9l-15-5.2l-11.8,6.4l-6.1,3.3l-5.5,7.1l-2.6,3.3
			l-8.6,0.4l-0.5-8.6l-3-1.7l-7.9,5.3l-5.2,4.1l-0.6,2.9l-1,3.6l-5.8-1.4l-2.8-0.7l-0.2,7.8l-3,5.8l-2.2,3.3H685l-15.5,8.7l-0.4,2.3
			l-19.3,12.9l-2,1.1l-25.2,1c0,0-21.9,13.7-22.3,16.1l-1.6,13.8l-5.3,5.1H585l-3.3-2.4l-5.5,6.1l-1.2,2l-2,21.3H424.1H27.8l1.8-4.9
			l8.1,0.3l4.2-10.6l8-0.3l-5.2-7.1l3.8-4l-7.6-5.4l7.9-11.1l-4.3-3.4l-1.2,3.1l-3.5-0.9l2.1-4.8l6.1-5.6l3.8,8.1l1-16.3l3.7,0.3
			l6.3,4l0.8-3.4l-4.7-4.8l10.1-7.3l-7.5,0.4l-1.6-10.1l11.3-1l4.8-7.1l6.7-0.2l-5.5-4.1l-0.2-5.2l11.1-1l-7.9-9.5l4.2-3.8l0.6-7.3
			l7.7-4.9L82,83.1l15-0.6l1-2.8l-7.9-5.4l5.6-1.8l3.8-4l-3.4-5.1l2.2-3.6l-0.8-5.5h5.1l0.6,4.9l5.7-3.9l123.4-1.7c0,0,0,0,0.1,0
			c0.3,0,1.6-1-0.1-18.4H250.2 M816.3,42.1L816.3,42.1 M250.2,25.2h-17.8c-2.8,0-5.5,1.2-7.4,3.3c-1.9,2.1-2.8,4.9-2.6,7.7
			c0.3,3.1,0.5,5.6,0.6,7.6l-114.2,1.5c-0.5,0-1,0.1-1.5,0.1c-1.4-0.7-3-1.1-4.6-1.1h-5.1c-2.9,0-5.7,1.3-7.6,3.5
			c-1.9,2.2-2.7,5.1-2.3,8l0.3,1.9l-0.3,0.5c-1.3,2.1-1.7,4.5-1.3,6.8c-3.2,1.3-5.6,4.3-6.1,7.8c0,0.2,0,0.3-0.1,0.5
			c-3.2,0.6-6,2.8-7.3,5.9c-1.5,3.5-0.9,7.6,1.6,10.5l3.3,3.8c-1.5,1.6-2.5,3.7-2.7,6l-0.3,3.3l-1.3,1.2c-2.9,2.6-3.9,6.6-2.9,10.2
			c-2.3,1.9-3.7,4.9-3.6,8.1l0.2,4.3l-1.6,2.3l-6.6,0.6c-2.8,0.2-5.3,1.6-7,3.8c-1.7,2.2-2.4,5-2,7.7l1.4,8.7
			c-0.2,0.3-0.5,0.5-0.7,0.8c-1.7,0.3-3.3,1.1-4.6,2.3c-2,1.8-3.3,4.3-3.4,6.9l0,0.2c-0.6,0.3-1.1,0.7-1.6,1.2l-6.1,5.6
			c-1,0.9-1.8,2-2.4,3.3l-2.1,4.8c-1.2,2.7-1.2,5.8,0.1,8.4c0.5,0.9,1,1.8,1.7,2.5c-1.4,2.1-1.9,4.7-1.5,7.1
			c0.4,2.5,1.8,4.7,3.8,6.3c-0.1,0.7-0.1,1.3-0.1,2c-0.9,0.9-1.6,2-2.1,3.2l-1.6,4.1l-1,0c-0.1,0-0.3,0-0.4,0c-4.2,0-8,2.6-9.4,6.6
			l-1.8,4.9c-1.1,3.1-0.6,6.5,1.2,9.1c1.9,2.7,4.9,4.3,8.2,4.3h396.4h148.8c5.2,0,9.5-3.9,10-9.1l1.7-18c0.1,0,0.3,0,0.4,0h8.4
			c2.6,0,5.1-1,6.9-2.8l5.3-5.1c1.7-1.6,2.7-3.7,3-6l1.2-10.4c3.2-2.5,9.8-6.9,15.8-10.8l22.6-0.9c1.6-0.1,3.1-0.5,4.5-1.3l2-1.1
			c0.2-0.1,0.4-0.3,0.7-0.4l19.3-12.9c1.5-1,2.7-2.4,3.5-4l9.5-5.3h9.2c3.3,0,6.5-1.7,8.3-4.5l2.2-3.3c0.2-0.3,0.4-0.6,0.5-0.9
			l3-5.8c0-0.1,0.1-0.2,0.1-0.3c4.3-0.1,8.2-3,9.4-7.3l0.6-2.3c1.8,2.4,4.7,3.9,7.9,3.9c0.2,0,0.3,0,0.5,0l8.6-0.4
			c2.9-0.1,5.6-1.5,7.4-3.8l2.6-3.3c0,0,0-0.1,0.1-0.1l4.2-5.4l4.2-2.3l7.9-4.3l10.9,3.7c1.1,0.4,2.1,0.5,3.2,0.5c2,0,4-0.6,5.7-1.8
			l2.7-1.9c1.3-0.9,2.4-2.1,3.1-3.6l7.9-15.1l6.1-4.6l5,0.7c0.5,0.1,0.9,0.1,1.4,0.1c3.2,0,6.2-1.5,8.1-4.1c2.2-3,2.5-6.9,0.9-10.2
			l-1.6-3.4c0.8-3.4,2.5-9.5,4.2-15.1l0.7-0.7c2.1-1.8,3.4-4.5,3.4-7.5c0-5.5-4.4-9.9-9.8-10c0,0,0,0,0,0c0,0,0,0,0,0
			c0,0-0.1,0-0.1,0c0,0-0.1,0-0.1,0c-0.1,0-0.3,0-0.4,0l-33.9,1.7l-17.9,0.4H599.3l-47.5-1l-49.1-1.9c0,0-0.1,0-0.1,0L411,29.3
			l-29.4-1.1c-0.1,0-0.3,0-0.4,0c-0.3,0-0.6,0-0.9,0l-11.6,1l-16.7-1.3c-0.3,0-0.5,0-0.8,0c0,0-0.1,0-0.1,0l-93.1,1.3
			C256.3,26.8,253.5,25.2,250.2,25.2L250.2,25.2z"/>
	</g>
</g>
<g id="Layer_3">
	<path class="st1" d="M270.5,37l4,33.3l7.2,1.1l-5.1,16.8l2.2,21.6l31,4.5l-1.5,26.8l-10.8,7.7v8.8l6.9,8.5l-1.8,3.8v2.2l8.9,1.1
		l7.3-1.1l16.6,5l0.9,9.4h6.5l2.3,6.3h6.7l12.8-7.8l1.1-4.1l5.9,1.5l10,4.1l14.2-11.6v8.4h21.5l9.9,6.3l4-8.9v-16.8l25.3-0.9
		l15.2-4.9l15.7-21.2h31l11.7-7.3l10.1-9.4c0,0-9.4-22.4-20.4-27.9l-19.2,0.8l-27.6-9.4l-5.8-8.6l-7.6,8.5l-20-0.9l-5.6-5l1.7-15.6
		l-30.4-1.8l-6.3-5.7l1.8-17.4l-19.5-0.7l-12.4,1.1l-17.5-1.4l-32.8,0.5L270.5,37z"/>
</g>
</svg>
