<svg xmlns="http://www.w3.org/2000/svg" viewBox="0 0 791.53 191.02">
    <defs>
        <style>
            .cls-1{fill:#fff;}.cls-1,.cls-2{stroke:#fff;stroke-linecap:round;stroke-linejoin:round;stroke-width:3px;}.cls-2{fill:#ed2024;}</style>
    </defs>
    <g id="Layer_2" data-name="Layer 2">
        <path class="cls-1"
            d="M318.66,425.88s1.89,1.35,0-18.38H336.5v4l101.12-1.39,17.53,1.39,12.41-1.11L497,411.5l91.55,2.15,49.15,1.87,47.73,1H850.29l18.12-.44,34.13-1.68L899.65,417s-5.59,18-5.86,22.14l3,6.26-9.09-1.28-11.21,8.49-8.89,17.07-2.72,1.91-15.05-5.15L838,472.86l-6.06,3.33-5.45,7.07-2.63,3.33-8.58.41-.51-8.59-3-1.71-7.88,5.35-5.25,4.14-.6,2.93-1,3.63-5.76-1.41-2.83-.71-.2,7.78-3,5.76-2.22,3.33H771.22l-15.51,8.71-.4,2.33L736,531.41l-2,1.12-25.23,1s-21.89,13.68-22.3,16.11l-1.62,13.78-5.27,5.07h-8.35l-3.35-2.36-5.52,6.1-1.18,2-2,21.28H510.38l-396.36,0,1.75-4.85,8.08.33,4.25-10.64,8-.34-5.25-7.14,3.77-4L127,563.52l7.88-11.12L130.62,549l-1.21,3.13-3.54-.91,2.12-4.75,6.07-5.56L137.9,549l1-16.27,3.74.3,6.26,4,.81-3.43-4.65-4.85,10.11-7.28-7.48.41-1.62-10.11,11.32-1,4.85-7.07,6.67-.2-5.46-4.06-.2-5.24,11.11-1-7.88-9.5,4.25-3.84.6-7.27,7.68-4.85L168.31,455.4l15-.61,1-2.83-7.88-5.45,5.65-1.82,3.84-4-3.43-5.06,2.22-3.63-.81-5.46H189l.6,4.95,5.66-3.95Z"
            transform="translate(-112.52 -406)" />
    </g>
    <g id="Layer_3" data-name="Layer 3">
        <path class="cls-2"
            d="M356.81,411.22l4,33.26,7.18,1.07-5.09,16.84L365.11,484l30.95,4.45-1.46,26.78-10.82,7.66v8.77l6.88,8.49L388.9,544v2.15l8.9,1.08,7.28-1.08,16.59,5,.88,9.38H429l2.29,6.27H438l12.81-7.82,1.08-4.12,5.86,1.53,10,4.14,14.19-11.64v8.41h21.54l9.91,6.27,4-8.9V537.83l25.29-.94L557.85,532l15.71-21.17h31l11.73-7.28,10.11-9.44s-9.44-22.42-20.36-27.91l-19.15.81-27.57-9.37-5.8-8.57-7.62,8.5-20-.94-5.56-5L522,436l-30.44-1.82-6.27-5.66,1.81-17.39-19.5-.74-12.41,1.11-17.53-1.39-32.8.45Z"
            transform="translate(-112.52 -406)" />
    </g>
</svg>